<svg style="position: absolute; width: 0; height: 0;" width="0" height="0" version="1.1" xmlns="http://www.w3.org/2000/svg" xmlns:xlink="http://www.w3.org/1999/xlink">
<defs>
<symbol id="icon-menu" viewBox="0 0 24 24">
<title>menu</title>
<path class="path1" d="M3 5h18q0.414 0 0.707 0.293t0.293 0.707-0.293 0.707-0.707 0.293h-18q-0.414 0-0.707-0.293t-0.293-0.707 0.293-0.707 0.707-0.293zM3 17h18q0.414 0 0.707 0.293t0.293 0.707-0.293 0.707-0.707 0.293h-18q-0.414 0-0.707-0.293t-0.293-0.707 0.293-0.707 0.707-0.293zM3 11h18q0.414 0 0.707 0.293t0.293 0.707-0.293 0.707-0.707 0.293h-18q-0.414 0-0.707-0.293t-0.293-0.707 0.293-0.707 0.707-0.293z"></path>
</symbol>
<symbol id="icon-close" viewBox="0 0 24 24">
<title>close</title>
<path class="path1" d="M19 4q0.43 0 0.715 0.285t0.285 0.715q0 0.422-0.289 0.711l-6.297 6.289 6.297 6.289q0.289 0.289 0.289 0.711 0 0.43-0.285 0.715t-0.715 0.285q-0.422 0-0.711-0.289l-6.289-6.297-6.289 6.297q-0.289 0.289-0.711 0.289-0.43 0-0.715-0.285t-0.285-0.715q0-0.422 0.289-0.711l6.297-6.289-6.297-6.289q-0.289-0.289-0.289-0.711 0-0.43 0.285-0.715t0.715-0.285q0.422 0 0.711 0.289l6.289 6.297 6.289-6.297q0.289-0.289 0.711-0.289z"></path>
</symbol>
<symbol id="icon-twitter" viewBox="0 0 16 16">
<title>twitter</title>
<path class="path1" d="M16 3.538c-0.588 0.263-1.222 0.438-1.884 0.516 0.678-0.406 1.197-1.050 1.444-1.816-0.634 0.375-1.338 0.65-2.084 0.797-0.6-0.638-1.453-1.034-2.397-1.034-1.813 0-3.281 1.469-3.281 3.281 0 0.256 0.028 0.506 0.084 0.747-2.728-0.138-5.147-1.444-6.766-3.431-0.281 0.484-0.444 1.050-0.444 1.65 0 1.138 0.578 2.144 1.459 2.731-0.538-0.016-1.044-0.166-1.488-0.409 0 0.013 0 0.028 0 0.041 0 1.591 1.131 2.919 2.634 3.219-0.275 0.075-0.566 0.116-0.866 0.116-0.212 0-0.416-0.022-0.619-0.059 0.419 1.303 1.631 2.253 3.066 2.281-1.125 0.881-2.538 1.406-4.078 1.406-0.266 0-0.525-0.016-0.784-0.047 1.456 0.934 3.181 1.475 5.034 1.475 6.037 0 9.341-5.003 9.341-9.341 0-0.144-0.003-0.284-0.009-0.425 0.641-0.459 1.197-1.038 1.637-1.697z"></path>
</symbol>
<symbol id="icon-github" viewBox="0 0 16 16">
<title>github</title>
<path class="path1" d="M8 0.198c-4.418 0-8 3.582-8 8 0 3.535 2.292 6.533 5.471 7.591 0.4 0.074 0.547-0.174 0.547-0.385 0-0.191-0.008-0.821-0.011-1.489-2.226 0.484-2.695-0.944-2.695-0.944-0.364-0.925-0.888-1.171-0.888-1.171-0.726-0.497 0.055-0.486 0.055-0.486 0.803 0.056 1.226 0.824 1.226 0.824 0.714 1.223 1.872 0.869 2.328 0.665 0.072-0.517 0.279-0.87 0.508-1.070-1.777-0.202-3.645-0.888-3.645-3.954 0-0.873 0.313-1.587 0.824-2.147-0.083-0.202-0.357-1.015 0.077-2.117 0 0 0.672-0.215 2.201 0.82 0.638-0.177 1.322-0.266 2.002-0.269 0.68 0.003 1.365 0.092 2.004 0.269 1.527-1.035 2.198-0.82 2.198-0.82 0.435 1.102 0.162 1.916 0.079 2.117 0.513 0.56 0.823 1.274 0.823 2.147 0 3.073-1.872 3.749-3.653 3.947 0.287 0.248 0.543 0.735 0.543 1.481 0 1.070-0.009 1.932-0.009 2.195 0 0.213 0.144 0.462 0.55 0.384 3.177-1.059 5.466-4.057 5.466-7.59 0-4.418-3.582-8-8-8z"></path>
</symbol>
<symbol id="icon-rss" viewBox="0 0 16 16">
<title>rss</title>
<path class="path1" d="M2.13 11.733c-1.175 0-2.13 0.958-2.13 2.126 0 1.174 0.955 2.122 2.13 2.122 1.179 0 2.133-0.948 2.133-2.122-0-1.168-0.954-2.126-2.133-2.126zM0.002 5.436v3.067c1.997 0 3.874 0.781 5.288 2.196 1.412 1.411 2.192 3.297 2.192 5.302h3.080c-0-5.825-4.739-10.564-10.56-10.564zM0.006 0v3.068c7.122 0 12.918 5.802 12.918 12.932h3.076c0-8.82-7.176-16-15.994-16z"></path>
</symbol>
<symbol id="icon-linkedin" viewBox="0 0 16 16">
<title>linkedin</title>
<path class="path1" d="M6 6h2.767v1.418h0.040c0.385-0.691 1.327-1.418 2.732-1.418 2.921 0 3.461 1.818 3.461 4.183v4.817h-2.885v-4.27c0-1.018-0.021-2.329-1.5-2.329-1.502 0-1.732 1.109-1.732 2.255v4.344h-2.883v-9z"></path>
<path class="path2" d="M1 6h3v9h-3v-9z"></path>
<path class="path3" d="M4 3.5c0 0.828-0.672 1.5-1.5 1.5s-1.5-0.672-1.5-1.5c0-0.828 0.672-1.5 1.5-1.5s1.5 0.672 1.5 1.5z"></path>
</symbol>
<symbol id="icon-codepen" viewBox="0 0 16 16">
<title>codepen</title>
<path class="path1" d="M14.777 5.751l-7-4.667c-0.168-0.112-0.387-0.112-0.555 0l-7 4.667c-0.139 0.093-0.223 0.249-0.223 0.416v4.667c0 0.167 0.084 0.323 0.223 0.416l7 4.667c0.084 0.056 0.181 0.084 0.277 0.084s0.193-0.028 0.277-0.084l7-4.667c0.139-0.093 0.223-0.249 0.223-0.416v-4.667c0-0.167-0.084-0.323-0.223-0.416zM7.5 10.232l-2.599-1.732 2.599-1.732 2.599 1.732-2.599 1.732zM8 5.899v-3.465l5.599 3.732-2.599 1.732-3-2zM7 5.899l-3 2-2.599-1.732 5.599-3.732v3.465zM3.099 8.5l-2.099 1.399v-2.798l2.099 1.399zM4 9.101l3 2v3.465l-5.599-3.732 2.599-1.732zM8 11.101l3-2 2.599 1.732-5.599 3.732v-3.465zM11.901 8.5l2.099-1.399v2.798l-2.099-1.399z"></path>
</symbol>
<symbol id="icon-coffee" viewBox="0 0 32 32">
<title>cup-of-coffee</title>
<path class="path1" d="M26.51 17.341c-0.811-0.991-2.139-1.533-3.849-1.575-0.047-0.408-0.393-0.725-0.814-0.725h-16.4c-0.453 0-0.82 0.367-0.82 0.82v9.508c0 1.889 1.054 3.581 2.751 4.415v0c-0.082 0.196-0.124 0.404-0.124 0.618 0 0.881 0.717 1.598 1.598 1.598h9.59c0.881 0 1.598-0.717 1.598-1.598 0-0.214-0.042-0.422-0.124-0.618 1.452-0.714 2.432-2.055 2.685-3.611 1.402-0.311 2.591-1.115 3.485-2.372 0.83-1.168 1.106-2.315 1.134-2.442l0.006-0.027c0.335-1.657 0.094-2.999-0.717-3.99zM24.82 20.824c-0.021 0.082-0.223 0.827-0.738 1.552-0.399 0.561-0.867 0.96-1.415 1.202v-5.353c0.617 0.023 1.513 0.151 1.94 0.673 0.319 0.389 0.39 1.038 0.214 1.926z"></path>
<path class="path2" d="M10.025 5.84c1.331 0.155 2.688 0.175 3.84 0.175 0.375 0 0.749-0.002 1.124-0.005 0.582-0.004 1.163-0.007 1.744-0.002l0.087 0c0.148 0 0.321-0.003 0.5-0.006 0.187-0.003 0.382-0.006 0.565-0.006-0.358 0.070-0.794 0.148-1.183 0.218-0.783 0.14-1.593 0.284-2.176 0.422l-0.11 0.026c-1.131 0.267-2.84 0.67-3.392 1.892-0.217 0.471-0.201 1.009 0.043 1.475 0.258 0.492 0.735 0.843 1.276 0.937 0.189 0.033 0.392 0.065 0.613 0.065 0.36 0 0.721-0.033 1.065-0.1 1.783-0.35 1.798 0.112 1.799 0.161 0.005 0.303-0.585 0.828-0.837 1.052-0.054 0.048-0.1 0.089-0.132 0.12-0.066 0.062-0.143 0.131-0.226 0.206-0.51 0.455-1.21 1.079-1.125 1.761 0.010 0.082 0.080 0.144 0.163 0.144 0.002 0 0.003 0 0.005-0 0.084-0.002 0.153-0.068 0.159-0.152 0.020-0.281 0.293-0.526 0.548-0.735 0.242-0.197 0.505-0.38 0.759-0.558 0.106-0.074 0.212-0.148 0.317-0.223l0.008-0.006c0.465-0.333 1.243-0.89 1.349-1.557 0.042-0.268-0.026-0.525-0.203-0.765-0.492-0.667-1.38-0.723-2.172-0.723l-0.064 0c-0.14 0-0.282 0.004-0.423 0.007-0.147 0.004-0.293 0.007-0.44 0.007-0.253 0-0.457-0.011-0.641-0.035-0.37-0.049-0.496-0.246-0.409-0.393 0.258-0.439 1.556-0.826 3.897-1.13 0.127-0.017 0.227-0.030 0.292-0.039 0.144-0.022 0.288-0.043 0.432-0.065 0.829-0.123 1.687-0.251 2.506-0.493 1.461-0.433 1.741-1.169 1.709-1.727-0-0.004-0-0.007-0.001-0.011l0.001-0-0.002-0.017c-0.001-0.010-0.002-0.021-0.003-0.032-0-0.001-0-0.002-0-0.003s0-0 0-0 0-0 0-0 0-0-0-0.001 0 0 0-0c-0.066-0.582-0.47-1.057-1.108-1.304-0.924-0.358-2.008-0.362-2.965-0.365l-0.25-0.001c-0.818-0.005-1.651 0.013-2.456 0.030-0.704 0.015-1.432 0.031-2.148 0.031s-1.344-0.016-1.923-0.048c-0.447-0.025-0.975-0.064-1.507-0.161-0.401-0.074-0.899-0.166-1.216-0.434-0.286-0.242 0.012-0.777 0.209-1.025 0.598-0.753 1.644-1.065 2.589-1.271 0.867-0.189 1.815-0.289 2.986-0.316 0.752-0.017 1.486 0.001 2.182 0.055 0.004 0 0.009 0 0.013 0 0.001 0 0.001 0 0.002 0 0.091 0 0.164-0.073 0.164-0.164 0-0.079-0.056-0.145-0.131-0.161-1.339-0.384-2.763-0.586-4.119-0.586-0.418 0-0.835 0.019-1.24 0.057-1.557 0.145-3.553 0.702-4.222 2.528-0.227 0.619-0.194 1.171 0.096 1.643 0.643 1.045 2.411 1.453 3.781 1.612z"></path>
</symbol>
</defs>
</svg>
